<svg xmlns="http://www.w3.org/2000/svg" width="512" height="512" viewBox="0 0 512 512">
  <rect width="512" height="512" rx="114" fill="#0e1c2b"></rect>
  <svg x="112" y="112" width="288" height="288" viewBox="19.75 9.5 89.5 89.5">
    <g fill="#2fe0d1">
    <rect x="30" y="88" width="62" height="7" rx="3" transform="rotate(0.5 61 91.5)" opacity="1"></rect>
    <rect x="27" y="78.5" width="66" height="7" rx="3" transform="rotate(-1.5 60 82)" opacity="0.9"></rect>
    <rect x="33" y="69" width="70" height="7" rx="3" transform="rotate(1 68 72.5)" opacity="1"></rect>
    <rect x="31" y="59.5" width="58" height="7" rx="3" transform="rotate(2 60 63)" opacity="0.92"></rect>
    <rect x="26" y="50" width="66" height="7" rx="3" transform="rotate(-1 59 53.5)" opacity="1"></rect>
    <rect x="34" y="40.5" width="68" height="7" rx="3" transform="rotate(1.5 68 44)" opacity="0.9"></rect>
    <rect x="30" y="31" width="56" height="7" rx="3" transform="rotate(-2.5 58 34.5)" opacity="1"></rect>
    <rect x="29" y="22" width="62" height="7" rx="3" transform="rotate(1.5 60 25.5)" opacity="0.94"></rect>
    <rect x="35" y="13.5" width="52" height="7" rx="3" transform="rotate(4 61 17)" opacity="1"></rect>
    </g>
  </svg>
</svg>