<svg xmlns="http://www.w3.org/2000/svg" viewBox="0 0 120 120" width="120" height="120"><rect width="120" height="120" rx="27" fill="#0e1c2b"></rect><g transform="translate(21 21) scale(0.65)"><rect x="30" y="88" width="62" height="7" rx="3" transform="rotate(0.5 61 91.5)" fill="#2fe0d1" opacity="1"></rect><rect x="27" y="78.5" width="66" height="7" rx="3" transform="rotate(-1.5 60 82)" fill="#2fe0d1" opacity="0.9"></rect><rect x="33" y="69" width="70" height="7" rx="3" transform="rotate(1 68 72.5)" fill="#2fe0d1" opacity="1"></rect><rect x="31" y="59.5" width="58" height="7" rx="3" transform="rotate(2 60 63)" fill="#2fe0d1" opacity="0.92"></rect><rect x="26" y="50" width="66" height="7" rx="3" transform="rotate(-1 59 53.5)" fill="#2fe0d1" opacity="1"></rect><rect x="34" y="40.5" width="68" height="7" rx="3" transform="rotate(1.5 68 44)" fill="#2fe0d1" opacity="0.9"></rect><rect x="30" y="31" width="56" height="7" rx="3" transform="rotate(-2.5 58 34.5)" fill="#2fe0d1" opacity="1"></rect><rect x="29" y="22" width="62" height="7" rx="3" transform="rotate(1.5 60 25.5)" fill="#2fe0d1" opacity="0.94"></rect><rect x="35" y="13.5" width="52" height="7" rx="3" transform="rotate(4 61 17)" fill="#2fe0d1" opacity="1"></rect></g></svg>